<?xml version="1.0" encoding="utf-8"?>
<!-- Generator: Adobe Illustrator 27.1.1, SVG Export Plug-In . SVG Version: 6.00 Build 0)  -->
<svg version="1.1" xmlns="http://www.w3.org/2000/svg" xmlns:xlink="http://www.w3.org/1999/xlink" x="0px" y="0px"
	 viewBox="0 0 492.63 425.18" style="enable-background:new 0 0 492.63 425.18;" xml:space="preserve">
<style type="text/css">
	.st0{fill:#EFEA59;}
	.st1{fill:#FFFFFF;}
	.st2{fill:#BBCEA8;stroke:#FFFFFF;stroke-miterlimit:10;}
	.st3{fill:#FFFFFF;stroke:#BBCEA8;stroke-miterlimit:10;}
</style>
<g id="headphones">
	<g>
		<path class="st0" d="M404.15,232.64c-14.92,76.54-81.34,134.25-161.02,134.25c-83.91,0-153.11-63.99-162.96-146.58"/>
		<path class="st0" d="M80.17,220.31c-0.79-6.65-1.2-13.42-1.2-20.29c0-92.16,73.5-166.87,164.16-166.87s164.16,74.71,164.16,166.87
			c0,11.16-1.08,22.07-3.13,32.62"/>
		<path class="st1" d="M384.54,220.32c-6.87,75.19-67.56,133.99-141.41,133.99c-61.01,0-113.04-40.14-133.16-96.49"/>
		<path class="st1" d="M101.71,220.31c-0.43-4.69-0.65-9.45-0.65-14.25c0-81.88,63.6-148.25,142.06-148.25
			s142.06,66.37,142.06,148.25c0,4.81-0.22,9.56-0.65,14.25"/>
		<path class="st1" d="M109.96,257.82c-4.23-11.86-7.06-24.43-8.25-37.5"/>
	</g>
	<g id="Layer_3">
		<rect x="52.59" y="207.75" class="st1" width="424.42" height="198.57"/>
	</g>
	<path class="st0" d="M109.79,356.97c2.54-1.41,4.39-3.45,5.92-5.76V204.1c-2.37-3.96-5.78-7.1-10.3-8.69
		c-42.08,4.91-74.7,39.46-74.7,81.38c0,42.37,33.31,77.23,76.05,81.55C107.81,357.95,108.83,357.51,109.79,356.97z"/>
	<path class="st0" d="M380.61,357.06c-2.54-1.41-4.39-3.45-5.92-5.76V204.18c2.37-3.96,5.78-7.1,10.3-8.69
		c42.08,4.91,74.7,39.46,74.7,81.38c0,42.37-33.31,77.23-76.05,81.55C382.59,358.03,381.58,357.59,380.61,357.06z"/>
</g>
<g id="globe">
	<circle class="st2" cx="242.89" cy="274.16" r="117"/>
	<path class="st3" d="M191.4,169.07c0,0-54.5,113.22,2.86,211.53l5,2.15c0,0-57.33-82.11-3.25-215.81L191.4,169.07z"/>
	<polygon class="st3" points="237.73,157.28 237.73,391.16 242.89,391.16 242.89,157.16 	"/>
	<polygon class="st3" points="125.89,274.16 359.89,274.16 359.76,279.59 126.02,279.59 	"/>
	<path class="st3" d="M293.22,169.07c0,0,54.5,113.22-2.86,211.53l-5,2.15c0,0,57.33-82.11,3.25-215.81L293.22,169.07z"/>
</g>
</svg>
